<svg width="209" height="41" viewBox="0 0 209 41" fill="none" xmlns="http://www.w3.org/2000/svg">
<g clip-path="url(#clip0_106_31)">
<mask id="mask0_106_31" style="mask-type:luminance" maskUnits="userSpaceOnUse" x="0" y="0" width="209" height="41">
<path d="M208.018 0H0V40.2967H208.018V0Z" fill="white"/>
</mask>
<g mask="url(#mask0_106_31)">
<path d="M68.2255 26.7714C66.4065 28.5547 64.1968 29.4462 61.5962 29.4462C58.9616 29.4462 56.7435 28.5547 54.9415 26.7714C53.1399 24.9716 52.2388 22.7639 52.2388 20.1486C52.2388 17.5334 53.1399 15.3341 54.9415 13.5512C56.7433 11.7511 58.9616 10.8509 61.5962 10.8509C64.214 10.8509 66.4237 11.7511 68.2255 13.5512C70.0442 15.3341 70.9536 17.5334 70.9536 20.1486C70.9536 22.7468 70.0442 24.9545 68.2255 26.7714ZM58.1541 23.6383C59.0891 24.5384 60.2363 24.9884 61.5962 24.9884C62.956 24.9884 64.1033 24.5384 65.0384 23.6383C65.9562 22.7212 66.4153 21.558 66.4153 20.1486C66.4153 18.7222 65.9562 17.5674 65.0384 16.6843C64.1204 15.7673 62.9731 15.3089 61.5962 15.3089C60.2192 15.3089 59.0719 15.7673 58.1541 16.6843C57.2362 17.5674 56.7774 18.7222 56.7774 20.1486C56.7774 21.558 57.2362 22.7213 58.1541 23.6383ZM73.7065 11.2332H80.6418C82.4434 11.2332 83.9562 11.8189 85.1802 12.9906C86.404 14.1626 87.0159 15.6569 87.0159 17.4739C87.0159 19.2911 86.404 20.7854 85.1802 21.9572C83.9562 23.1288 82.4434 23.7148 80.6418 23.7148H78.2705V29.0641H73.7064L73.7065 11.2332ZM78.2707 19.3845H80.6418C81.1515 19.3845 81.581 19.2061 81.9293 18.8495C82.2778 18.4927 82.4521 18.0343 82.4521 17.4739C82.4521 16.9135 82.2778 16.4594 81.9293 16.111C81.581 15.7631 81.1515 15.5891 80.6418 15.5891H78.2707V19.3845ZM103.817 29.0641H99.2791V20.0976L92.9815 29.0641H89.4374V11.2332H94.0014V20.1997L100.299 11.2332H103.817V29.0641ZM110.497 10.3417C109.936 10.3417 109.456 10.1421 109.056 9.74294C108.657 9.34376 108.457 8.86422 108.457 8.30373C108.457 7.74325 108.657 7.26371 109.056 6.86452C109.456 6.46534 109.936 6.26576 110.497 6.26576C111.041 6.26576 111.513 6.46534 111.912 6.86452C112.311 7.26371 112.511 7.74325 112.511 8.30373C112.511 8.86422 112.311 9.34376 111.912 9.74294C111.513 10.1421 111.041 10.3417 110.497 10.3417ZM115.443 10.3417C114.899 10.3417 114.428 10.1421 114.028 9.74294C113.629 9.34376 113.429 8.86422 113.429 8.30373C113.429 7.74325 113.629 7.26371 114.028 6.86452C114.428 6.46534 114.899 6.26576 115.443 6.26576C116.004 6.26576 116.485 6.46534 116.884 6.86452C117.284 7.26371 117.483 7.74325 117.483 8.30373C117.483 8.86422 117.284 9.34376 116.884 9.74294C116.485 10.1421 116.004 10.3417 115.443 10.3417ZM111.848 22.1608V24.7848H118.758V29.0641H107.284V11.2332H118.631V15.487H111.848V17.9581H117.993V22.1608H111.848ZM131.149 17.8307V11.2332H135.687V29.0641H131.149V22.2118H126.126V29.0641H121.562V11.2332H126.126V17.8307H131.149ZM143.717 17.8053H146.523C148.324 17.8053 149.778 18.3147 150.883 19.3335C151.971 20.3524 152.514 21.7111 152.514 23.4091C152.514 25.1074 151.971 26.4743 150.883 27.5103C149.795 28.5462 148.341 29.0641 146.523 29.0641H139.154V11.2332H150.985V15.6399H143.717V17.8053ZM143.717 24.8866H146.344C147.432 24.8866 147.976 24.394 147.976 23.4091C147.976 22.9165 147.831 22.5432 147.542 22.2884C147.254 22.0334 146.854 21.9064 146.344 21.9064H143.717V24.8866ZM170.158 26.7714C168.338 28.5547 166.129 29.4462 163.528 29.4462C160.894 29.4462 158.675 28.5547 156.874 26.7714C155.071 24.9716 154.171 22.7639 154.171 20.1486C154.171 17.5334 155.071 15.3341 156.874 13.5512C158.675 11.7511 160.894 10.8509 163.528 10.8509C166.145 10.8509 168.355 11.7511 170.158 13.5512C171.976 15.3341 172.885 17.5334 172.885 20.1486C172.885 22.7468 171.976 24.9545 170.158 26.7714ZM160.086 23.6383C161.021 24.5384 162.169 24.9884 163.528 24.9884C164.889 24.9884 166.035 24.5384 166.97 23.6383C167.888 22.7212 168.347 21.558 168.347 20.1486C168.347 18.7222 167.888 17.5674 166.97 16.6843C166.052 15.7673 164.905 15.3089 163.528 15.3089C162.151 15.3089 161.004 15.7673 160.086 16.6843C159.168 17.5674 158.709 18.7222 158.709 20.1486C158.709 21.558 159.168 22.7213 160.086 23.6383ZM185.226 17.8307V11.2332H189.764V29.0641H185.226V22.2118H180.203V29.0641H175.638V11.2332H180.203V17.8307H185.226ZM202.103 19.894L208.019 29.0641H202.919L197.795 21.0912V29.0641H193.231V11.2332H197.795V18.7222L202.665 11.2332H207.764L202.103 19.894Z" fill="#011957"/>
<path fill-rule="evenodd" clip-rule="evenodd" d="M20.1676 0C24.7839 0 29.0379 1.55025 32.4368 4.15792C35.8705 6.79245 38.432 10.5072 39.6119 14.793H39.6139L39.6562 14.9519C39.8147 15.5474 39.9473 16.1543 40.0517 16.771C40.1547 17.3798 40.2306 17.997 40.2776 18.62L40.2947 18.8489H26.1944L25.3547 20.8426L40.323 20.8417L40.3132 21.0631C40.2855 21.6858 40.2292 22.3008 40.1467 22.9072C40.0626 23.5211 39.9515 24.1253 39.8139 24.717L39.7756 24.8826H39.7732C38.703 29.3219 36.1622 33.1887 32.6946 35.9384C29.2538 38.6669 24.9011 40.2967 20.1676 40.2967C19.6397 40.2967 19.1147 40.2761 18.593 40.2359C18.072 40.1955 17.551 40.1343 17.0318 40.0532C16.6616 39.995 15.2923 39.7688 15.0201 39.6331C14.7568 39.5638 14.4929 39.4883 14.2295 39.4072C13.9602 39.3244 13.6979 39.2377 13.4432 39.1478L13.2303 39.0725L19.2511 24.8835H16.8459L11.1405 38.1707L10.9374 38.0662C10.3887 37.7836 9.85184 37.4742 9.32943 37.1408C8.80076 36.8036 8.29304 36.4456 7.80842 36.0699L7.69018 35.9781L7.69044 35.9767C5.32492 34.1131 3.38616 31.7302 2.04696 28.9996C0.736323 26.327 0 23.3229 0 20.1485C0 14.5848 2.25761 9.54761 5.90713 5.90155C9.55664 2.25549 14.5988 0 20.1676 0ZM21.7932 18.8489H19.437L18.5806 20.8434H20.9506L21.7932 18.8489ZM30.5258 8.56375L27.9026 14.793H34.7344C34.2978 13.5988 33.718 12.4719 33.0168 11.4335C32.3041 10.3782 31.4665 9.41449 30.5258 8.56375ZM23.5064 14.793L27.1269 6.22168C26.0821 5.68917 24.9701 5.27125 23.8078 4.98453C22.6198 4.69152 21.3774 4.53593 20.0993 4.53593C15.8168 4.53593 11.9232 6.28633 9.10077 9.10633C6.27807 11.9261 4.52604 15.816 4.52604 20.0942V20.2028C4.52604 20.3625 4.52794 20.5034 4.53121 20.6243L4.53882 20.8443L14.1737 20.8437L16.7716 14.793H23.5064ZM12.4388 24.8837L5.25121 24.8842C5.66299 26.179 6.24031 27.4006 6.9576 28.5241C7.68413 29.6627 8.55635 30.703 9.54707 31.6178L12.4388 24.8837ZM34.9467 24.882L23.6431 24.8829L19.0425 35.7252C19.1722 35.7342 19.2991 35.7416 19.4236 35.7469C19.6375 35.7561 19.8628 35.7608 20.0991 35.7608C23.5727 35.7608 26.7898 34.6092 29.3869 32.6695C31.9756 30.7362 33.9488 28.0204 34.9467 24.882Z" fill="#F9B503"/>
</g>
</g>
<defs>
<clipPath id="clip0_106_31">
<rect width="208.018" height="40.38" fill="white"/>
</clipPath>
</defs>
</svg>
